<svg width="21" height="21" viewBox="0 0 21 21" fill="none" xmlns="http://www.w3.org/2000/svg">
<path opacity="0.5" d="M18.62 13.8506V13.0285C18.62 10.7033 18.6199 9.54095 17.8975 8.81857C17.1751 8.09619 16.0125 8.09619 13.6872 8.09619H7.11024C4.78495 8.09619 3.6223 8.09619 2.89992 8.81857C2.17773 9.54079 2.17773 10.7026 2.17773 13.0267V13.0285V13.8506C2.17773 16.1759 2.17773 17.3386 2.90011 18.0609C3.62249 18.7833 4.78513 18.7833 7.11043 18.7833H13.6874C16.0126 18.7833 17.1753 18.7833 17.8976 18.0609C18.62 17.3386 18.62 16.1759 18.62 13.8506Z" fill="#FF2B51" fill-opacity="0.5"/>
<path fill-rule="evenodd" clip-rule="evenodd" d="M10.3993 13.6463C10.7399 13.6463 11.0159 13.3702 11.0159 13.0297V4.00896L12.3976 5.62084C12.6191 5.8794 13.0084 5.90934 13.267 5.68772C13.5255 5.46611 13.5554 5.07686 13.3339 4.81831L10.8675 1.94091C10.7504 1.80424 10.5794 1.72559 10.3993 1.72559C10.2194 1.72559 10.0484 1.80424 9.93123 1.94091L7.46486 4.81831C7.24324 5.07686 7.27319 5.46611 7.53174 5.68772C7.79028 5.90934 8.17954 5.8794 8.40116 5.62084L9.78275 4.00896V13.0297C9.78275 13.3702 10.0588 13.6463 10.3993 13.6463Z" fill="#FF2B51" fill-opacity="0.5"/>
</svg>
