<svg width="16" height="16" viewBox="0 0 16 16" fill="none" xmlns="http://www.w3.org/2000/svg">
<path opacity="0.5" d="M14.6663 10.6664V9.99971C14.6663 8.11411 14.6662 7.17158 14.0804 6.58579C13.4946 6 12.5518 6 10.6662 6H5.33285C3.44724 6 2.50443 6 1.91864 6.58579C1.33301 7.17145 1.33301 8.11358 1.33301 9.99825V9.99971V10.6664C1.33301 12.552 1.33301 13.4948 1.91879 14.0806C2.50458 14.6664 3.44739 14.6664 5.33301 14.6664H10.6663C12.5519 14.6664 13.4947 14.6664 14.0805 14.0806C14.6663 13.4948 14.6663 12.552 14.6663 10.6664Z" fill="#19BBC2" fill-opacity="0.5"/>
<path fill-rule="evenodd" clip-rule="evenodd" d="M8 10.5007C8.27613 10.5007 8.5 10.2768 8.5 10.0007V2.68561L9.6204 3.99271C9.80007 4.20238 10.1157 4.22666 10.3254 4.04694C10.5351 3.86724 10.5593 3.55158 10.3797 3.34192L8.37967 1.00859C8.28467 0.897764 8.146 0.833984 8 0.833984C7.85407 0.833984 7.7154 0.897764 7.6204 1.00859L5.62038 3.34192C5.44067 3.55158 5.46495 3.86724 5.67461 4.04694C5.88427 4.22666 6.19993 4.20238 6.37964 3.99271L7.5 2.68561V10.0007C7.5 10.2768 7.72387 10.5007 8 10.5007Z" fill="#19BBC2" fill-opacity="0.5"/>
</svg>
